<svg xmlns="http://www.w3.org/2000/svg" viewBox="0 0 24 24" data-base-stroke="1.75">
  <path d="M7.8,10.8 L7.81,10.507 7.841,10.215 7.892,9.927 7.963,9.642 8.053,9.364 8.163,9.092 8.292,8.828 8.438,8.574 8.602,8.331 8.783,8.1 8.979,7.882 9.19,7.679 9.414,7.49 9.651,7.318 9.9,7.163 10.159,7.025 10.427,6.906 10.702,6.806 10.984,6.725 11.271,6.664 11.561,6.623 11.853,6.603 12.147,6.603 12.439,6.623 12.729,6.664 13.016,6.725 13.298,6.806 13.573,6.906 13.841,7.025 14.1,7.163 14.349,7.318 14.586,7.49 14.81,7.679 15.021,7.882 15.217,8.1 15.398,8.331 15.562,8.574 15.708,8.828 15.837,9.092 15.947,9.364 16.037,9.642 16.108,9.927 16.159,10.215 16.19,10.507 16.2,10.8" stroke="currentColor" stroke-width="1.75" stroke-linecap="round" stroke-linejoin="round"/>
  <rect x="4.8" y="10.6" width="14.4" height="10.2" rx="2.8" stroke="currentColor" stroke-width="1.75" stroke-linecap="round" stroke-linejoin="round"/>
  <circle cx="12" cy="15.6" r="1.3" fill="currentColor"/>
</svg>
