<svg xmlns="http://www.w3.org/2000/svg" viewBox="0 0 24 24" data-base-stroke="1.75">
  <rect x="8.4" y="12.8" width="7.2" height="8" rx="2" fill="currentColor"/>
  <path d="M7.65,10.971 L7.804,10.668 7.98,10.377 8.176,10.099 8.391,9.835 8.624,9.587 8.875,9.357 9.141,9.145 9.421,8.952 9.714,8.779 10.019,8.628 10.334,8.498 10.657,8.392 10.987,8.308 11.322,8.248 11.66,8.212 12,8.2 12.34,8.212 12.678,8.248 13.013,8.308 13.343,8.392 13.666,8.498 13.981,8.628 14.286,8.779 14.579,8.952 14.859,9.145 15.125,9.357 15.376,9.587 15.609,9.835 15.824,10.099 16.02,10.377 16.196,10.668 16.35,10.971" stroke="currentColor" stroke-width="2.4" stroke-linecap="round" stroke-linejoin="round"/>
  <path d="M5.293,9.873 L5.532,9.405 5.803,8.956 6.105,8.527 6.436,8.121 6.796,7.739 7.182,7.383 7.592,7.056 8.024,6.759 8.476,6.493 8.946,6.26 9.431,6.06 9.929,5.896 10.438,5.767 10.954,5.674 11.476,5.619 12,5.6 12.524,5.619 13.046,5.674 13.562,5.767 14.071,5.896 14.569,6.06 15.054,6.26 15.524,6.493 15.976,6.759 16.408,7.056 16.818,7.383 17.204,7.739 17.564,8.121 17.895,8.527 18.197,8.956 18.468,9.405 18.707,9.873" stroke="currentColor" stroke-width="2.4" stroke-linecap="round" stroke-linejoin="round"/>
  <path d="M3.299,8.943 L3.609,8.337 3.96,7.754 4.352,7.198 4.782,6.67 5.249,6.175 5.749,5.714 6.281,5.289 6.842,4.903 7.428,4.558 8.038,4.256 8.667,3.997 9.314,3.784 9.973,3.616 10.643,3.496 11.32,3.424 12,3.4 12.68,3.424 13.357,3.496 14.027,3.616 14.686,3.784 15.333,3.997 15.962,4.256 16.572,4.558 17.158,4.903 17.719,5.289 18.251,5.714 18.751,6.175 19.218,6.67 19.648,7.198 20.04,7.754 20.391,8.337 20.701,8.943" stroke="currentColor" stroke-width="2.4" stroke-linecap="round" stroke-linejoin="round"/>
</svg>
